<?xml version="1.0" encoding="UTF-8"?>
<svg xmlns="http://www.w3.org/2000/svg" viewBox="0 0 1024 1024" width="1024" height="1024">
  <g transform="translate(0.000000,1024.000000) scale(0.100000,-0.100000)" fill="#ffffff">
    <path d="M4200 7761 c-158 -34 -265 -93 -358 -198 -31 -35 -62 -75 -69 -87
-11 -22 -20 -23 -135 -29 -196 -8 -328 -65 -447 -193 -91 -97 -171 -287 -171
-405 0 -34 -4 -40 -47 -65 -71 -41 -170 -140 -214 -214 -43 -74 -69 -167 -69
-255 0 -60 0 -61 -56 -115 -111 -110 -149 -216 -142 -395 5 -104 15 -148 62
-256 5 -10 -13 -37 -54 -84 -106 -120 -160 -268 -160 -440 0 -193 54 -318 203
-470 l98 -99 -16 -68 c-33 -147 -12 -290 61 -415 41 -71 189 -214 256 -249 52
-26 58 -32 58 -61 0 -164 125 -368 296 -482 110 -74 210 -104 352 -105 l113
-1 25 -32 c34 -45 214 -188 272 -217 169 -85 377 -99 548 -35 30 11 91 45 136
75 46 30 95 58 109 61 21 4 28 12 33 42 3 20 6 1059 6 2308 l0 2273 -37 23
c-21 13 -63 46 -93 72 -62 54 -169 107 -248 124 -77 16 -214 12 -312 -8z m351
-218 c36 -17 90 -54 122 -84 l56 -54 7 -797 7 -798 -68 0 -68 0 7 186 6 185
-29 42 c-16 23 -68 80 -115 126 l-86 84 0 246 c0 135 3 256 6 268 3 12 17 24
30 27 56 14 124 127 124 207 0 63 -50 162 -99 194 -109 72 -251 43 -337 -71
-22 -29 -29 -50 -32 -99 -2 -35 1 -80 8 -100 15 -46 70 -108 109 -125 l30 -12
3 -294 3 -293 61 -63 c33 -35 85 -92 116 -128 l56 -66 -5 -229 -6 -230 133 -3
c73 -1 136 -5 141 -7 4 -3 7 -495 7 -1095 l-1 -1090 -289 0 c-305 0 -339 5
-352 47 -2 10 -8 192 -12 406 l-6 387 47 43 c74 64 105 120 105 186 0 69 -25
124 -76 173 -70 67 -162 84 -244 47 -79 -36 -125 -96 -136 -181 -11 -84 52
-193 141 -243 17 -10 18 -26 16 -200 -1 -105 2 -298 5 -430 l6 -240 87 -88 86
-87 95 10 c52 5 191 10 308 10 l212 0 0 -68 c0 -92 -13 -129 -62 -180 -84 -86
-223 -132 -338 -113 -172 29 -358 151 -449 295 l-41 65 -47 -13 c-124 -35
-235 -26 -351 29 -164 77 -252 233 -252 445 0 79 0 80 -27 86 -75 16 -128 39
-181 78 -72 53 -108 96 -141 166 -23 49 -26 67 -26 165 0 99 3 116 29 175 15
36 30 79 33 96 5 30 2 32 -42 47 -127 44 -250 182 -284 322 -15 60 -16 200 -1
274 18 97 119 230 209 275 48 25 51 29 51 65 0 28 -11 55 -42 102 -73 111 -89
182 -67 291 10 48 18 60 97 135 l87 83 5 127 c5 113 9 135 34 190 43 94 129
165 240 198 l39 12 -2 79 c-2 99 10 163 50 262 39 95 99 156 205 209 91 44
179 53 294 29 41 -9 82 -16 91 -16 10 0 22 23 37 68 27 83 70 136 160 196 118
78 185 97 337 93 99 -3 118 -6 176 -34z m-167 -299 c37 -38 36 -84 -5 -118
-17 -15 -43 -26 -59 -26 -16 0 -42 11 -59 26 -25 21 -31 33 -31 65 0 34 5 42
33 59 45 28 89 26 121 -6z m-322 -2631 c39 -37 38 -84 -1 -124 -41 -40 -71
-38 -115 11 -43 48 -46 82 -10 115 37 35 89 34 126 -2z M3481 7058 c-61 -30
-121 -123 -121 -187 0 -57 27 -116 75 -170 l37 -40 -4 -588 -3 -587 -31 -8
c-17 -4 -52 -26 -77 -49 -37 -32 -50 -53 -63 -96 -37 -128 11 -235 133 -297
l32 -16 0 -489 1 -489 -34 -20 c-113 -66 -129 -254 -31 -341 74 -64 200 -67
281 -5 41 30 84 117 84 166 0 73 -44 144 -117 190 l-33 20 0 488 0 489 51 48
c67 63 93 113 93 184 1 71 -35 143 -91 184 l-42 30 0 590 -1 591 53 34 c98 65
126 172 70 271 -59 105 -167 145 -262 97z m133 -139 c14 -17 26 -34 26 -39 0
-25 -26 -60 -52 -71 -80 -33 -137 84 -60 125 40 22 57 19 86 -15z m-28 -1591
c62 -56 16 -158 -70 -158 -39 0 -86 46 -86 83 1 92 91 135 156 75z m12 -1420
c5 -7 13 -28 17 -45 6 -28 2 -37 -23 -63 -36 -35 -46 -37 -89 -10 -27 16 -33
26 -33 55 0 48 29 75 79 75 21 0 43 -6 49 -12z M3951 6280 c-56 -13 -113 -61
-144 -120 -26 -49 -28 -62 -24 -122 5 -83 36 -135 102 -173 l45 -27 0 -369 c0
-287 3 -370 13 -373 6 -3 40 -7 75 -10 l62 -6 0 378 0 378 29 17 c15 9 44 34
64 56 76 84 75 203 -1 291 -57 67 -144 99 -221 80z m120 -157 c35 -36 32 -97
-4 -129 -41 -35 -81 -32 -123 10 -40 40 -43 72 -13 110 39 49 99 53 140 9z
M3090 6177 c-52 -17 -106 -77 -126 -142 -15 -48 -16 -62 -5 -103 14 -56 55
-110 99 -131 30 -15 31 -19 34 -86 l3 -70 78 -3 77 -3 0 70 0 71 45 41 c63 58
83 126 61 202 -37 126 -149 191 -266 154z m125 -142 c43 -42 30 -104 -25 -124
-70 -24 -140 55 -97 110 34 44 87 50 122 14z M4339 5460 c-86 -45 -138 -148
-123 -242 8 -49 58 -116 104 -142 l35 -18 3 -477 c1 -262 0 -487 -4 -501 -3
-14 -19 -34 -37 -45 -43 -27 -74 -76 -88 -140 -10 -47 -10 -60 6 -101 23 -60
77 -120 122 -135 90 -29 190 9 241 92 30 48 33 60 29 110 -6 69 -36 129 -84
168 l-38 30 1 496 0 496 30 18 c93 58 123 189 68 299 -49 98 -173 141 -265 92z
m111 -115 c35 -18 50 -43 50 -82 0 -67 -78 -96 -125 -48 -46 45 -21 130 43
144 2 1 16 -6 32 -14z m29 -1428 c40 -49 8 -127 -51 -127 -41 0 -68 25 -68 64
0 49 24 76 69 76 21 0 44 -6 50 -13z M2834 5391 c-75 -34 -110 -74 -128 -148
-11 -41 -15 -81 -11 -104 9 -52 56 -114 105 -139 35 -18 40 -25 40 -56 0 -32
12 -46 130 -162 l131 -127 -11 -195 c-5 -107 -15 -211 -21 -231 -29 -93 77
-152 160 -90 l23 18 2 274 2 274 -90 99 c-131 143 -156 173 -156 185 0 7 16
27 35 47 128 127 83 308 -89 359 -63 19 -72 19 -122 -4z m120 -143 c42 -38 39
-90 -6 -118 -38 -23 -64 -19 -95 16 -29 31 -29 64 -2 98 26 33 69 34 103 4z
M5070 7151 l0 -499 71 -12 c92 -16 150 -9 220 24 56 27 91 55 256 201 119 106
358 295 435 345 114 74 288 111 356 76 15 -8 34 -26 41 -40 13 -23 12 -28 -4
-46 -11 -12 -67 -46 -125 -77 -207 -110 -327 -194 -610 -428 -161 -133 -210
-167 -295 -206 -78 -35 -170 -49 -270 -42 l-75 6 0 -750 c0 -412 2 -752 4
-754 6 -6 247 8 369 21 243 25 551 113 763 216 190 92 310 180 479 349 224
224 257 264 251 300 -3 17 -10 100 -16 185 -12 174 -70 686 -101 885 -31 211
-76 313 -165 381 -49 36 -217 105 -329 134 -44 11 -138 25 -210 31 -86 7 -162
21 -225 39 -256 76 -352 101 -430 115 -84 14 -338 45 -372 45 -17 0 -18 -30
-18 -499z M7105 5983 c3 -38 17 -124 31 -193 45 -236 58 -508 30 -640 -30
-141 -124 -300 -283 -482 -232 -265 -582 -471 -990 -584 -264 -72 -437 -100
-680 -111 l-143 -6 0 -579 0 -578 34 0 c49 0 277 18 386 31 279 33 617 135
925 279 269 126 607 364 824 581 107 108 251 279 316 377 186 280 278 496 315
739 20 128 -3 352 -52 503 -69 216 -257 451 -492 615 -122 84 -176 115 -205
115 -23 0 -23 -1 -16 -67z M6981 5618 c-2 -37 -153 -199 -293 -315 -276 -230
-494 -340 -848 -431 -237 -61 -470 -92 -692 -92 l-78 0 0 -322 0 -323 143 6
c182 9 298 23 464 59 402 87 775 276 1015 512 158 157 288 336 288 398 0 18
-3 20 -14 11 -8 -7 -33 -13 -55 -14 -101 -4 -144 105 -71 183 23 25 36 30 72
30 24 0 53 -7 65 -15 20 -14 22 -14 28 5 8 24 -4 245 -15 293 -4 17 -8 24 -9
15z"/>
  </g>
</svg>
